<svg width="25" height="25" viewBox="0 0 25 25" fill="none" xmlns="http://www.w3.org/2000/svg">
<path d="M19.8942 19.373C19.8943 19.8656 19.7865 20.3523 19.5785 20.7988C19.3704 21.2453 19.0672 21.6409 18.69 21.9577C18.3128 22.2746 17.8708 22.505 17.3951 22.6328C16.9194 22.7607 16.4214 22.7828 15.9362 22.6977C15.451 22.6126 14.9903 22.4224 14.5865 22.1403C14.1826 21.8582 13.8455 21.4911 13.5986 21.0648C13.3517 20.6385 13.2012 20.1634 13.1575 19.6727C13.1138 19.1821 13.1781 18.6878 13.3458 18.2246L8.37702 15.0324C7.90246 15.4979 7.30102 15.8129 6.64813 15.9379C5.99524 16.0628 5.31998 15.9922 4.70707 15.7349C4.09417 15.4775 3.5709 15.0449 3.20292 14.4913C2.83494 13.9377 2.63864 13.2878 2.63864 12.623C2.63864 11.9583 2.83494 11.3083 3.20292 10.7547C3.5709 10.2011 4.09417 9.76854 4.70707 9.5112C5.31998 9.25386 5.99524 9.18324 6.64813 9.30821C7.30102 9.43318 7.90246 9.74816 8.37702 10.2137L13.3458 7.02616C13.0612 6.24432 13.0748 5.38507 13.3837 4.61258C13.6927 3.84008 14.2755 3.20852 15.0207 2.83856C15.7659 2.4686 16.6213 2.38619 17.4235 2.60708C18.2256 2.82796 18.9182 3.33666 19.369 4.03595C19.8198 4.73525 19.9971 5.57612 19.8671 6.39789C19.737 7.21966 19.3088 7.96471 18.6641 8.49068C18.0195 9.01664 17.2036 9.28664 16.3725 9.24909C15.5413 9.21153 14.7532 8.86905 14.1586 8.28709L9.18983 11.4793C9.45837 12.2214 9.45837 13.0341 9.18983 13.7762L14.1586 16.9683C14.633 16.5041 15.2338 16.19 15.8857 16.0654C16.5377 15.9408 17.212 16.0112 17.8241 16.2679C18.4363 16.5245 18.9592 16.956 19.3274 17.5083C19.6956 18.0606 19.8928 18.7092 19.8942 19.373Z" fill="#3ED67E"/>
</svg>
