<svg width="138" height="111" viewBox="0 0 138 111" fill="none" xmlns="http://www.w3.org/2000/svg">
<path d="M0 8C0 5.87827 0.842855 3.84344 2.34315 2.34315C3.84344 0.842855 5.87827 0 8 0L137.86 0V5V21V31C137.86 41 129.86 23 129.86 38.5C129.86 54 137.86 36 137.86 46V47V57V73V77H85.832L79.832 81H76.832L70.832 77H63.832C61.7102 77 59.6754 77.8429 58.1751 79.3431C56.6748 80.8434 55.832 82.8783 55.832 85V93C55.832 95.1217 56.6748 97.1566 58.1751 98.6569C59.6754 100.157 61.7102 101 63.832 101H137.86V111H8C5.87827 111 3.84344 110.157 2.34315 108.657C0.842855 107.157 0 105.122 0 103V8Z" fill="#7A4984"/>
</svg>
